<?xml version="1.0" standalone="no"?>
<!DOCTYPE svg PUBLIC "-//W3C//DTD SVG 20010904//EN"
 "http://www.w3.org/TR/2001/REC-SVG-20010904/DTD/svg10.dtd">
<svg version="1.0" xmlns="http://www.w3.org/2000/svg"
 width="800.000000pt" height="800.000000pt" viewBox="0 0 800.000000 800.000000"
 preserveAspectRatio="xMidYMid meet">

<g transform="translate(0.000000,800.000000) scale(0.100000,-0.100000)"
fill="#000000" stroke="none">
<path d="M4965 7082 c-16 -2 -73 -17 -125 -34 -127 -40 -284 -74 -460 -100
-215 -31 -614 -31 -825 1 -231 34 -255 38 -335 60 -41 11 -100 27 -130 35 -30
8 -70 20 -88 27 -40 14 -115 8 -199 -16 -81 -23 -406 -136 -418 -145 -5 -4
-44 -20 -85 -35 -41 -15 -80 -31 -85 -36 -6 -4 -35 -17 -65 -28 -55 -21 -557
-272 -660 -330 -30 -17 -92 -49 -137 -72 -138 -69 -140 -82 -149 -739 -7 -455
6 -723 46 -1010 10 -74 21 -160 25 -190 8 -67 39 -250 59 -345 8 -38 22 -108
31 -155 8 -47 22 -107 30 -135 8 -27 24 -84 35 -125 61 -228 146 -488 214
-655 18 -44 43 -107 56 -140 35 -92 45 -114 158 -345 58 -118 116 -233 130
-254 13 -22 34 -58 46 -80 23 -41 46 -83 94 -166 23 -39 145 -223 161 -242 4
-4 54 -23 112 -41 l105 -33 -111 165 c-628 938 -966 1964 -1045 3176 -14 210
-14 738 -1 940 6 83 11 164 11 182 0 30 6 35 98 86 535 300 1070 537 1408 623
l72 18 88 -27 c194 -58 364 -93 574 -118 117 -14 513 -18 660 -7 196 16 423
61 645 130 l99 30 71 -16 c306 -72 936 -336 1367 -573 155 -85 139 -61 159
-243 17 -158 23 -799 10 -997 -84 -1253 -427 -2312 -1048 -3232 -46 -68 -82
-126 -80 -128 2 -2 51 13 108 33 l104 36 63 98 c111 174 213 355 340 605 32
62 50 102 97 214 14 35 35 80 46 100 10 19 19 41 19 47 0 6 21 63 46 125 57
142 95 251 140 399 18 63 39 130 44 147 68 205 176 747 220 1103 59 482 66
1217 14 1569 -10 68 -20 102 -37 125 -27 35 -203 136 -427 246 -80 39 -153 75
-162 80 -26 15 -279 122 -463 197 -149 61 -242 95 -390 144 -101 34 -227 56
-280 51z"/>
<path d="M1580 5841 l0 -331 55 0 55 0 0 74 0 73 41 7 c54 9 107 37 145 78 53
55 68 95 68 173 0 80 -20 129 -76 181 -56 53 -94 67 -195 72 l-93 4 0 -331z
m189 200 c48 -34 66 -69 66 -126 0 -74 -47 -134 -117 -151 l-28 -6 0 157 0
157 28 -6 c15 -4 38 -15 51 -25z"/>
<path d="M4770 5910 c0 -247 -1 -261 -20 -280 -11 -11 -29 -20 -40 -20 -25 0
-60 34 -60 58 0 21 18 46 42 58 15 8 15 13 -4 56 l-20 47 -38 -19 c-142 -73
-101 -276 59 -297 57 -8 124 20 159 65 l27 35 3 279 3 278 -56 0 -55 0 0 -260z"/>
<path d="M2150 6094 c-45 -20 -68 -41 -91 -86 -17 -33 -19 -61 -19 -268 l0
-230 55 0 55 0 0 50 0 50 70 0 70 0 0 -50 0 -50 55 0 55 0 0 229 c0 139 -4
241 -11 258 -33 89 -149 136 -239 97z m115 -109 c24 -23 25 -30 25 -150 l0
-125 -70 0 -70 0 0 125 c0 120 1 127 25 150 13 14 34 25 45 25 12 0 32 -11 45
-25z"/>
<path d="M2500 6060 l0 -50 55 0 55 0 0 -250 0 -250 55 0 55 0 0 250 0 250 55
0 55 0 0 50 0 50 -165 0 -165 0 0 -50z"/>
<path d="M3090 6101 c-78 -25 -146 -87 -182 -166 -32 -70 -32 -191 1 -255 29
-57 85 -116 136 -143 58 -31 173 -30 233 1 215 114 215 433 0 543 -46 23 -146
34 -188 20z m154 -120 c45 -28 86 -109 86 -171 0 -92 -66 -180 -148 -196 -91
-18 -192 86 -192 197 0 41 28 111 58 143 56 59 127 69 196 27z"/>
<path d="M3920 6094 c-45 -20 -68 -41 -91 -86 -17 -33 -19 -61 -19 -268 l0
-230 55 0 55 0 0 50 0 50 70 0 70 0 0 -50 0 -50 55 0 55 0 0 229 c0 139 -4
241 -11 258 -33 89 -149 136 -239 97z m115 -109 c24 -23 25 -30 25 -150 l0
-125 -70 0 -70 0 0 125 c0 120 1 127 25 150 13 14 34 25 45 25 12 0 32 -11 45
-25z"/>
<path d="M5100 6094 c-45 -20 -68 -41 -91 -86 -17 -33 -19 -61 -19 -268 l0
-230 55 0 55 0 0 50 0 50 70 0 70 0 0 -50 0 -50 55 0 55 0 0 229 c0 139 -4
241 -11 258 -33 89 -149 136 -239 97z m115 -109 c24 -23 25 -30 25 -150 l0
-125 -70 0 -70 0 0 125 c0 120 1 127 25 150 13 14 34 25 45 25 12 0 32 -11 45
-25z"/>
<path d="M5440 6060 l0 -50 55 0 55 0 0 -250 0 -250 55 0 55 0 0 250 0 250 55
0 55 0 0 50 0 50 -165 0 -165 0 0 -50z"/>
<path d="M6040 6101 c-78 -25 -146 -87 -182 -166 -32 -70 -32 -191 1 -255 29
-57 85 -116 136 -143 58 -31 173 -30 233 1 215 114 215 433 0 543 -46 23 -146
34 -188 20z m154 -120 c45 -28 86 -109 86 -171 0 -92 -66 -180 -148 -196 -91
-18 -192 86 -192 197 0 41 28 111 58 143 56 59 127 69 196 27z"/>
<path d="M4166 4884 c-3 -8 -6 -33 -6 -55 0 -52 -35 -155 -67 -197 -84 -112
-224 -92 -286 40 -26 56 -47 139 -47 188 0 22 -5 30 -17 30 -29 0 -142 -28
-225 -56 l-76 -25 19 -43 c32 -74 52 -176 45 -239 -11 -107 -52 -157 -137
-165 -38 -4 -57 1 -99 24 -60 33 -122 98 -156 167 -13 26 -28 47 -33 47 -25 0
-231 -201 -265 -258 -6 -9 17 -39 68 -92 91 -93 120 -150 120 -237 1 -71 -19
-106 -75 -136 -65 -34 -202 -3 -295 68 -18 14 -35 25 -39 25 -22 0 -115 -308
-115 -382 0 -24 5 -28 38 -33 213 -36 345 -152 312 -274 -21 -78 -107 -121
-257 -129 -118 -6 -113 1 -88 -114 12 -57 82 -288 89 -295 2 -2 36 8 77 22
102 35 205 43 263 21 88 -34 123 -108 91 -194 -22 -58 -111 -148 -177 -181
-27 -12 -48 -26 -48 -30 0 -10 85 -110 123 -145 18 -16 60 -56 93 -89 l62 -59
42 58 c52 72 90 107 155 141 65 35 150 38 192 7 81 -60 82 -210 1 -351 -16
-29 -27 -57 -24 -62 13 -20 295 -97 321 -88 6 3 15 32 18 65 18 167 117 289
218 267 45 -10 113 -77 138 -136 12 -27 27 -86 34 -131 l11 -80 58 6 c45 4
331 88 346 101 1 1 -17 42 -40 91 -39 80 -43 96 -43 164 0 57 5 83 20 110 39
67 129 88 212 51 42 -20 124 -94 180 -164 l31 -39 69 60 c73 63 198 204 198
224 0 6 -24 26 -54 43 -106 62 -164 142 -165 227 -2 89 61 139 183 146 63 3
89 0 154 -22 42 -14 82 -26 86 -26 22 0 101 290 101 367 l0 30 -97 5 c-80 4
-108 10 -150 32 -152 76 -122 242 59 326 36 17 88 33 116 37 78 9 78 9 58 108
-20 102 -69 262 -90 290 -13 18 -16 19 -33 3 -10 -8 -47 -31 -83 -49 -57 -29
-75 -33 -142 -34 -71 0 -79 2 -107 30 -60 57 -63 141 -10 252 28 58 125 163
151 163 27 0 -100 150 -192 226 -35 30 -69 54 -75 54 -5 0 -26 -28 -45 -62
-63 -110 -156 -174 -242 -166 -124 12 -172 165 -108 348 23 66 27 87 17 96
-16 16 -126 50 -212 68 -138 27 -142 28 -149 10z m69 -594 c164 -43 346 -153
446 -271 138 -162 237 -372 254 -540 4 -35 9 -77 10 -94 7 -59 -16 -235 -41
-321 -32 -113 -112 -268 -184 -359 -62 -77 -177 -170 -287 -231 -266 -149
-580 -155 -858 -16 -108 54 -183 108 -270 197 -274 280 -350 708 -192 1081 91
216 261 393 471 489 85 40 189 72 271 85 95 14 288 5 380 -20z"/>
<path d="M4209 3978 c-147 -127 -142 -116 -110 -247 10 -41 16 -85 13 -98 -4
-21 -174 -193 -191 -193 -3 0 -114 110 -245 245 -131 135 -242 245 -247 245
-22 0 -4 -32 54 -98 34 -39 127 -145 206 -234 79 -90 151 -171 158 -180 10
-11 12 -22 6 -32 -5 -9 -81 -89 -169 -178 -88 -90 -195 -200 -237 -245 -76
-80 -76 -82 -65 -115 19 -55 60 -105 115 -138 29 -18 57 -30 62 -28 5 1 112
115 238 252 125 137 233 251 239 253 6 2 88 -79 183 -179 186 -199 219 -228
262 -228 46 0 67 70 34 117 -8 12 -93 91 -188 176 -201 180 -212 191 -201 209
25 40 98 130 122 148 25 20 34 21 132 15 l106 -7 78 66 c122 103 117 93 102
224 -7 62 -15 114 -17 117 -5 5 -36 -23 -149 -132 l-76 -73 -64 59 -65 59 108
110 c60 60 105 112 100 115 -18 10 -182 57 -201 57 -11 0 -53 -28 -93 -62z"/>
<path d="M5750 1771 c-26 -15 -219 -78 -355 -115 -263 -73 -546 -126 -855
-160 -375 -42 -1010 -28 -1355 29 -367 61 -671 136 -923 226 -29 10 -59 19
-66 19 -8 0 -21 -33 -35 -87 -13 -49 -29 -111 -37 -140 l-14 -51 -338 -83
c-185 -45 -341 -86 -345 -90 -29 -24 114 -173 221 -230 73 -39 102 -78 102
-137 0 -18 -22 -99 -50 -180 -46 -139 -67 -237 -51 -246 6 -4 240 48 842 187
l186 43 79 -18 c95 -21 440 -74 544 -83 41 -4 89 -9 105 -11 179 -23 890 -29
1075 -9 25 3 113 12 195 21 130 13 307 41 556 86 75 13 -4 28 713 -137 204
-46 372 -82 375 -79 3 3 4 24 3 47 -2 44 -18 101 -72 251 -58 163 -33 231 115
313 44 25 91 54 104 66 28 26 81 96 81 108 0 11 -23 17 -378 104 -167 40 -307
76 -310 79 -3 3 -22 68 -42 143 -20 75 -41 138 -46 140 -5 1 -16 -2 -24 -6z
m-3237 -272 c20 -5 37 -16 37 -23 0 -7 -18 -99 -40 -204 -43 -208 -43 -234 5
-252 38 -14 60 -12 84 8 18 14 28 52 60 222 l38 205 44 -3 c24 -2 47 -6 51
-10 6 -6 -34 -260 -62 -388 -12 -55 -53 -104 -103 -123 -71 -27 -170 -1 -220
58 -50 60 -50 79 1 311 25 115 50 210 56 210 6 0 28 -5 49 -11z m2816 -50 c71
-15 127 -59 157 -122 27 -59 29 -95 9 -151 -13 -38 -13 -39 21 -71 28 -27 34
-39 34 -75 0 -36 -6 -48 -35 -75 -29 -28 -48 -35 -127 -50 -51 -9 -106 -17
-123 -18 l-29 -2 -43 255 c-23 140 -42 265 -43 276 0 19 8 23 58 32 31 5 60
10 64 11 4 0 30 -4 57 -10z m-2304 -39 c77 -11 146 -20 153 -20 8 0 12 -16 12
-46 l0 -46 -58 7 -58 7 -30 -234 -29 -233 -45 4 c-25 1 -49 7 -54 12 -8 7 14
191 51 430 l5 36 -56 7 -55 7 5 32 c7 38 12 57 16 57 2 0 66 -9 143 -20z
m1950 -38 c105 -51 155 -180 109 -278 -23 -47 -99 -112 -141 -120 l-35 -7 7
-67 7 -68 -49 -4 c-26 -3 -51 -2 -55 1 -6 6 -67 543 -62 550 7 8 120 17 154
13 19 -3 49 -11 65 -20z m-1532 -8 l97 -7 0 -45 0 -45 -84 6 -84 6 -6 -32 c-3
-18 -8 -73 -12 -123 l-6 -91 38 -6 c22 -4 56 -7 77 -7 l37 0 0 -46 0 -47 -79
6 -79 6 -6 -31 c-3 -17 -6 -46 -6 -66 l0 -35 -51 6 c-29 4 -54 8 -56 11 -5 5
45 522 53 545 3 9 14 11 37 8 17 -4 76 -9 130 -13z m374 -42 c74 -38 123 -120
123 -203 -1 -97 -104 -199 -200 -199 -29 0 -30 -1 -30 -47 0 -85 -3 -88 -65
-85 -50 4 -55 6 -50 25 2 12 10 138 16 281 l12 258 76 -4 c51 -3 90 -12 118
-26z m399 -1 c22 -10 56 -37 76 -60 71 -83 71 -189 1 -271 l-35 -41 50 -76
c28 -43 50 -78 49 -79 -1 -1 -23 -5 -49 -8 l-47 -7 -45 70 c-37 57 -49 68 -65
64 -18 -5 -21 -13 -21 -69 l0 -64 -55 0 -55 0 0 280 0 280 78 0 c53 0 90 -6
118 -19z m478 -233 c17 -64 14 -66 -91 -72 -54 -4 -113 -9 -130 -12 l-33 -5 0
45 c0 52 3 54 105 59 149 8 142 9 149 -15z"/>
<path d="M5274 1363 c-16 -6 27 -243 44 -243 8 0 29 15 48 34 28 28 34 42 34
75 0 43 -18 89 -43 110 -18 14 -68 29 -83 24z"/>
<path d="M5373 1037 c-54 -9 -59 -12 -45 -35 10 -15 97 -5 112 13 19 22 -11
32 -67 22z"/>
<path d="M4874 1248 c3 -29 9 -83 12 -120 6 -55 10 -68 24 -68 50 0 98 81 86
145 -8 41 -66 95 -103 95 -25 0 -26 -1 -19 -52z"/>
<path d="M3720 1173 c0 -49 -3 -105 -6 -125 -6 -36 -5 -38 21 -38 33 0 95 58
96 92 4 74 -18 120 -67 143 -18 8 -35 15 -38 15 -3 0 -6 -39 -6 -87z"/>
<path d="M4120 1202 c0 -27 3 -84 6 -126 7 -72 8 -76 28 -70 12 3 36 21 54 40
25 27 32 42 32 74 0 52 -23 96 -60 115 -50 26 -60 21 -60 -33z"/>
<path d="M3465 544 c11 -8 29 -22 40 -32 11 -9 38 -30 60 -46 22 -17 42 -33
45 -36 10 -12 267 -179 308 -200 62 -32 114 -24 198 31 37 24 72 48 78 54 6 6
49 37 96 70 47 33 94 68 105 78 11 10 39 30 62 45 72 46 65 51 -60 45 -126 -5
-91 10 -317 -145 -49 -34 -91 -56 -99 -53 -9 3 -78 48 -156 99 l-140 94 -120
5 c-107 5 -118 4 -100 -9z"/>
</g>
</svg>
